<?xml version="1.0" encoding="utf-8"?>
<!-- Generator: Adobe Illustrator 19.1.0, SVG Export Plug-In . SVG Version: 6.00 Build 0)  -->
<svg version="1.1" id="Layer_1" xmlns="http://www.w3.org/2000/svg" xmlns:xlink="http://www.w3.org/1999/xlink" x="0px" y="0px"
	 viewBox="0 0 262 113" style="enable-background:new 0 0 262 113;" xml:space="preserve">
<style type="text/css">
	.st0{fill-rule:evenodd;clip-rule:evenodd;fill:none;}
	.st1{fill-rule:evenodd;clip-rule:evenodd;fill:#FFFFFF;}
	.st2{fill:#FFFFFF;}
</style>
<path class="st0" d="M67.9,53.5c0,11.1-9,20.2-20.2,20.2c-11.1,0-20.2-9-20.2-20.2c0-11.1,9-20.2,20.2-20.2
	C58.8,33.3,67.9,42.4,67.9,53.5"/>
<path class="st1" d="M27.2,53.5c0,11.3,9.2,20.5,20.5,20.5c11.3,0,20.5-9.2,20.5-20.5C68.2,42.2,59,33,47.7,33
	C36.4,33,27.2,42.2,27.2,53.5 M27.9,53.5c0-10.9,8.9-19.8,19.8-19.8c10.9,0,19.8,8.9,19.8,19.8c0,10.9-8.9,19.8-19.8,19.8
	C36.8,73.3,27.9,64.4,27.9,53.5z"/>
<path class="st1" d="M33.6,47.9c5.2-3.4,11-5.4,20.9-3.7c0.5-0.3,0.8-0.6,1-1.3c-2.5-0.9-5.1-1.2-8.6-1.1c-3.1,0.1-8.7,1.2-11.6,3
	l0.9-1.1c2.1-1.2,7.5-2.8,11.6-2.9c2.9-0.1,4.4,0.1,7.8,1c-0.3-0.6-1-0.9-2-1.3c-3.3-1.5-9.5-1.6-14.5,0.6c0.6-0.4,1.3-0.8,2.1-1.2
	c1.7-0.8,4.4-1.5,7.8-1.4c2.7,0,5.9,1,7.9,3c0.3,0.4,0.5,0.8,0.6,1.1c1.6,0.8,2.5,1.5,3,2.4c0.2,0.4,0.3,0.9,0.2,1.5
	c0.7,0.4,1,0.7,1.3,1.1c0.2,0.4,0.4,0.8,0.4,1.1c0.1,0.5,0.1,1-0.4,1.7c0.5,0.3,1,1,1,1.3c0.2,1.2-0.5,2.3-1.5,3.2
	c-1.2,1-3.7,2.2-5.8,2.7c-4.1,1-7.7,1.5-10.6,2c1.3,0.3,3.1,0.7,5.9,0.7c6.1,0,11.6-2.9,11.6-2.9s-0.1,0.4-0.2,0.7
	c-3.9,2.4-10.1,3.4-12.7,3.2c-2.7-0.1-4.9-0.5-7.2-1.2c-0.7,0.2-1.3,0.4-2,0.7c3.4,1.5,5.9,1.9,8.8,2.1c2.9,0.2,7.8-0.5,11.9-2
	c-0.2,0.2-0.3,0.5-0.5,0.7c-2.1,1.1-6.5,2.2-8.8,2.3c-2.2,0.1-4.9,0-7.3-0.4c-2-0.4-3.7-1-5.4-1.8c-0.3,0.2-0.5,0.5-0.5,0.9
	c6.8,3.5,13.1,3.6,20.3,1.4l-0.7,0.6c-7.9,3.2-14.1,2-18.9-0.3c-0.2-0.1-0.3-0.1-0.5-0.2c0.4,0.8,4.1,3.4,8.2,3.8
	c2.8,0.2,6.3-0.3,8.3-1.1l-1.2,0.6c-1,0.5-3.6,1.6-7.3,1.3c-4.9-0.3-7.6-2.5-8.9-3.6c-0.6-0.5-0.8-1.1-1-1.9
	c-1.1-0.6-1.8-1.2-2.4-2.1c-0.3-0.5-0.3-1.1-0.2-1.6c0-0.2,0.1-0.3,0.1-0.4c-0.5-0.4-1.1-0.8-1.3-1.2c-0.5-0.9-0.2-1.6,0.1-2.2
	c-0.3-0.3-0.6-0.7-0.7-1c-0.1-0.4-0.2-0.8-0.1-1.2c0.1-0.7,0.5-1.4,1-2c1.1-1.2,2.7-2.2,5.6-3.1c2.8-0.9,3.9-1.1,6.1-1.6
	c2.5-0.6,5.4-0.8,7.9-1.6C46.2,43.9,39,45,33.2,49L33.6,47.9 M57.1,43.6c-0.1,0.3-0.5,0.7-0.7,1c0.8,0.2,1.5,0.5,2.2,0.8
	C58.6,44.7,57.8,44.1,57.1,43.6z M35.8,57.4c-0.4-0.2-0.7-0.4-1.1-0.7c-0.2,0.4,0.2,0.9,0.6,1.2C35.5,57.7,35.6,57.6,35.8,57.4z
	 M59.1,48.4c0.5,0.2,0.9,0.4,1.4,0.7c0.3-0.6,0.1-1-0.5-1.5C59.7,47.9,59.4,48.2,59.1,48.4z M57.7,49.3c-1,0.5-2.5,1-4.5,1.5
	c-1.7,0.4-5.8,1-10.3,2c-1.4,0.3-5.2,1.2-7.1,2.8c0.5,0.4,0.8,0.5,1.4,0.8c0.8-0.5,1.8-1,3.4-1.4c2.7-0.7,4.8-1,7.2-1.4
	c2.4-0.4,7-1.3,9.6-2.3c0.8-0.3,1.6-0.7,2.2-1.1C59.3,50,57.7,49.2,57.7,49.3z M38.4,60c0.4-0.2,0.8-0.4,1.3-0.7
	c-0.7-0.3-1.4-0.6-2.2-1c-0.3,0.2-0.6,0.4-0.9,0.7C37.3,59.3,37.8,59.6,38.4,60z M36.1,60.2c0,0.5,0.3,0.9,0.9,1.4
	c0.1-0.2,0.2-0.4,0.4-0.7C36.9,60.7,36.5,60.4,36.1,60.2z M39.5,51.7c5-1.5,10.3-1.9,15.6-3.3c-2.1-0.6-3.2-0.8-5.4-0.5
	c-3.2,0.4-6.7,1.1-9.7,2c-1.2,0.4-7.4,2.1-5.6,4.6C34.4,54.4,35.4,52.9,39.5,51.7z M58.3,46.6c-0.8-0.4-1.8-0.7-2.9-1
	c-0.5,0.4-1,0.7-1.9,1c1.4,0.2,2.4,0.6,3.5,0.9C57.2,47.7,58.1,46.8,58.3,46.6z M60.8,51.4c-0.2,0.1-0.3,0.3-0.5,0.4
	c-1.1,0.9-2.9,1.6-5.4,2.2c-5.2,1.4-8.9,1.6-13.1,2.6c-0.8,0.2-1.7,0.5-2.5,0.8c0.8,0.4,1.7,0.8,2.5,1.1c1.7-0.5,2.6-0.7,5.1-1.1
	c1-0.2,3.9-0.7,6-1.1C56.6,55.5,62.3,53.8,60.8,51.4z"/>
<g>
	<path class="st2" d="M87.9,62.5h4.2l0.5-3.1h2.9l0.5,3.1h4.2l-3.6-18h-5.2L87.9,62.5 M94.1,49.9l0.8,5.5h-1.6L94.1,49.9z"/>
	<path class="st2" d="M104.2,51.5c0.7,0,1.9-0.4,1.9-1.8c0-1.6-1.4-1.7-1.8-1.7c-0.5,0-1.4,0.1-2.3,0.5l0-3.9
		c1.4-0.4,2.4-0.5,3.6-0.5c3.4,0,4.9,2.4,4.9,4.7c0,2.3-1.3,3.7-2.6,4.2v0.2c1.2,0.4,2.9,1.6,2.9,4.3c0,3.4-2.4,5.3-5.4,5.3
		c-1.6,0-2.7-0.2-3.9-0.9l0.1-3.7c1.2,0.5,2,0.5,2.8,0.5c1.3,0,1.9-1,1.9-1.7c0-1-0.6-1.7-2.1-1.7h-1.7v-3.8H104.2"/>
	<polyline class="st2" points="112.8,44.5 124.2,44.5 124.2,62.5 120,62.5 120,48.8 117,48.8 117,62.5 112.8,62.5 112.8,44.5 	"/>
	<path class="st2" d="M126.6,62.5l4.2,0v-5.9h1.4c4.1,0,5.4-3.7,5.4-6.1c0-2.3-1.5-6-5.4-6l-5.6,0V62.5 M130.7,48.5h1
		c0.9,0,1.5,0.6,1.5,2.1c0,1.9-1,2.1-1.5,2.1h-1V48.5z"/>
	<path class="st2" d="M145.2,62.7c4.9,0,6.6-4.6,6.6-9.2c0-4.6-1.7-9.2-6.6-9.2s-6.6,4.6-6.6,9.2C138.6,58.1,140.3,62.7,145.2,62.7
		 M145.2,58.4c-1.5,0-2.2-1.7-2.2-4.9s0.8-4.9,2.2-4.9c1.5,0,2.2,1.7,2.2,4.9S146.7,58.4,145.2,58.4z"/>
	<path class="st2" d="M170,62.5h5c1.1,0,5.6-0.4,5.6-5.9c0-4.6-3.5-5.4-5.8-5.4h-0.7v-2.4h5.5v-4.3H170V62.5 M174.1,58.9v-4.1h0.6
		c0.5,0,1.8,0,1.8,1.9c0,1.9-1.3,2.2-1.8,2.2H174.1z"/>
	<polyline class="st2" points="195.6,44.5 199.7,44.5 199.7,51 202.6,51 202.6,44.5 206.6,44.5 206.6,62.5 202.6,62.5 202.6,55.3 
		199.7,55.3 199.7,62.5 195.6,62.5 195.6,44.5 	"/>
	<polyline class="st2" points="209.4,44.5 213.5,44.5 213.5,51 214.3,51 216.7,44.5 221.1,44.5 217.9,53 221.6,62.5 216.8,62.5 
		214.4,55.3 213.5,55.3 213.5,62.5 209.4,62.5 209.4,44.5 	"/>
	<polyline class="st2" points="79.8,44.5 88.3,44.5 88.4,49 84,49 84,62.5 79.8,62.5 79.8,44.5 	"/>
	<polyline class="st2" points="153.9,44.5 157.4,44.5 160.5,48.8 163.7,44.5 167.2,44.5 167.2,62.5 163,62.5 163,51.5 160.5,54.7 
		158,51.5 158,62.5 153.9,62.5 153.9,44.5 	"/>
	<path class="st2" d="M181.4,62.5h4.2l0.5-3.1h2.9l0.5,3.1h4.2l-3.6-18H185L181.4,62.5 M187.6,50l0.8,5.5h-1.6L187.6,50z"/>
</g>
</svg>
