<?xml version="1.0" encoding="utf-8"?>
<!-- Generator: Adobe Illustrator 20.1.0, SVG Export Plug-In . SVG Version: 6.00 Build 0)  -->
<svg version="1.1" id="Layer_1" xmlns="http://www.w3.org/2000/svg" xmlns:xlink="http://www.w3.org/1999/xlink" x="0px" y="0px"
	 viewBox="0 0 197.5 43.5" style="enable-background:new 0 0 197.5 43.5;" xml:space="preserve">
<style type="text/css">
	.st0{fill:none;}
	.st1{fill:#FFFFFF;}
</style>
<path class="st0" d="M42.4,21.8c0,11.1-9,20.2-20.2,20.2C11.1,41.9,2,32.9,2,21.7C2,10.6,11,1.5,22.2,1.5
	C33.3,1.5,42.4,10.7,42.4,21.8"/>
<path class="st1" d="M1.7,21.8c0,11.3,9.2,20.5,20.5,20.5s20.5-9.2,20.5-20.5S33.5,1.3,22.2,1.3S1.7,10.5,1.7,21.8 M2.4,21.8
	C2.4,10.8,11.3,2,22.2,2S42,10.8,42,21.8s-8.9,19.8-19.8,19.8S2.4,32.7,2.4,21.8z"/>
<path class="st1" d="M8.1,16.2c5.2-3.4,11-5.4,20.9-3.7c0.5-0.3,0.8-0.6,1-1.3c-2.5-0.9-5.1-1.2-8.6-1.1c-3.1,0.1-8.7,1.2-11.6,3
	l0.9-1.1c2.1-1.2,7.5-2.8,11.6-2.9c2.9-0.1,4.4,0.1,7.8,1c-0.3-0.6-1-0.9-2-1.3c-3.3-1.5-9.5-1.6-14.5,0.6c0.6-0.4,1.3-0.8,2.1-1.2
	c1.7-0.8,4.4-1.5,7.8-1.4c2.7,0,5.9,1,7.9,3c0.3,0.4,0.5,0.8,0.6,1.1c1.6,0.8,2.5,1.5,3,2.4c0.2,0.4,0.3,0.9,0.2,1.5
	c0.7,0.4,1,0.7,1.3,1.1c0.2,0.4,0.4,0.8,0.4,1.1c0.1,0.5,0.1,1-0.4,1.7c0.5,0.3,1,1,1,1.3c0.2,1.2-0.5,2.3-1.5,3.2
	c-1.2,1-3.7,2.2-5.8,2.7c-4.1,1-7.7,1.5-10.6,2c1.3,0.3,3.1,0.7,5.9,0.7c6.1,0,11.6-2.9,11.6-2.9S37,26,36.9,26.3
	c-3.9,2.4-10.1,3.4-12.7,3.2c-2.7-0.1-4.9-0.5-7.2-1.2c-0.7,0.2-1.3,0.4-2,0.7c3.4,1.5,5.9,1.9,8.8,2.1c2.9,0.2,7.8-0.5,11.9-2
	c-0.2,0.2-0.3,0.5-0.5,0.7c-2.1,1.1-6.5,2.2-8.8,2.3c-2.2,0.1-4.9,0-7.3-0.4c-2-0.4-3.7-1-5.4-1.8c-0.3,0.2-0.5,0.5-0.5,0.9
	c6.8,3.5,13.1,3.6,20.3,1.4l-0.7,0.6c-7.9,3.2-14.1,2-18.9-0.3c-0.2-0.1-0.3-0.1-0.5-0.2c0.4,0.8,4.1,3.4,8.2,3.8
	c2.8,0.2,6.3-0.3,8.3-1.1l-1.2,0.6c-1,0.5-3.6,1.6-7.3,1.3c-4.9-0.3-7.6-2.5-8.9-3.6c-0.6-0.5-0.8-1.1-1-1.9
	c-1.1-0.6-1.8-1.2-2.4-2.1c-0.3-0.5-0.3-1.1-0.2-1.6c0-0.2,0.1-0.3,0.1-0.4c-0.5-0.4-1.1-0.8-1.3-1.2c-0.5-0.9-0.2-1.6,0.1-2.2
	c-0.3-0.3-0.6-0.7-0.7-1C7,22.6,6.9,22.2,7,21.8c0.1-0.7,0.5-1.4,1-2c1.1-1.2,2.7-2.2,5.6-3.1c2.8-0.9,3.9-1.1,6.1-1.6
	c2.5-0.6,5.4-0.8,7.9-1.6c-6.9-1.3-14.1-0.2-19.9,3.8L8.1,16.2 M31.6,11.8c-0.1,0.3-0.5,0.7-0.7,1c0.8,0.2,1.5,0.5,2.2,0.8
	C33.1,13,32.3,12.3,31.6,11.8z M10.3,25.7c-0.4-0.2-0.7-0.4-1.1-0.7c-0.2,0.4,0.2,0.9,0.6,1.2C10,26,10.1,25.8,10.3,25.7z
	 M33.6,16.7c0.5,0.2,0.9,0.4,1.4,0.7c0.3-0.6,0.1-1-0.5-1.5C34.2,16.2,33.9,16.5,33.6,16.7z M32.2,17.5c-1,0.5-2.5,1-4.5,1.5
	c-1.7,0.4-5.8,1-10.3,2c-1.4,0.3-5.2,1.2-7.1,2.8c0.5,0.4,0.8,0.5,1.4,0.8c0.8-0.5,1.8-1,3.4-1.4c2.7-0.7,4.8-1,7.2-1.4
	s7-1.3,9.6-2.3c0.8-0.3,1.6-0.7,2.2-1.1C33.8,18.3,32.2,17.5,32.2,17.5z M12.9,28.3c0.4-0.2,0.8-0.4,1.3-0.7c-0.7-0.3-1.4-0.6-2.2-1
	c-0.3,0.2-0.6,0.4-0.9,0.7C11.8,27.5,12.3,27.8,12.9,28.3z M10.6,28.5c0,0.5,0.3,0.9,0.9,1.4c0.1-0.2,0.2-0.4,0.4-0.7
	C11.4,29,11,28.7,10.6,28.5z M14,20c5-1.5,10.3-1.9,15.6-3.3c-2.1-0.6-3.2-0.8-5.4-0.5c-3.2,0.4-6.7,1.1-9.7,2
	c-1.2,0.4-7.4,2.1-5.6,4.6C8.9,22.7,9.9,21.2,14,20z M32.8,14.8c-0.8-0.4-1.8-0.7-2.9-1c-0.5,0.4-1,0.7-1.9,1
	c1.4,0.2,2.4,0.6,3.5,0.9C31.7,16,32.6,15,32.8,14.8z M35.3,19.7c-0.2,0.1-0.3,0.3-0.5,0.4c-1.1,0.9-2.9,1.6-5.4,2.2
	c-5.2,1.4-8.9,1.6-13.1,2.6c-0.8,0.2-1.7,0.5-2.5,0.8c0.8,0.4,1.7,0.8,2.5,1.1c1.7-0.5,2.6-0.7,5.1-1.1c1-0.2,3.9-0.7,6-1.1
	C31.1,23.8,36.8,22,35.3,19.7z"/>
<g>
	<path class="st1" d="M62.4,30.8h4.2l0.5-3.1H70l0.5,3.1h4.2l-3.6-18h-5.2L62.4,30.8 M68.6,18.2l0.8,5.5h-1.6L68.6,18.2z"/>
	<path class="st1" d="M78.7,19.8c0.7,0,1.9-0.4,1.9-1.8c0-1.6-1.4-1.7-1.8-1.7c-0.5,0-1.4,0.1-2.3,0.5v-3.9c1.4-0.4,2.4-0.5,3.6-0.5
		c3.4,0,4.9,2.4,4.9,4.7s-1.3,3.7-2.6,4.2v0.2c1.2,0.4,2.9,1.6,2.9,4.3c0,3.4-2.4,5.3-5.4,5.3c-1.6,0-2.7-0.2-3.9-0.9l0.1-3.7
		c1.2,0.5,2,0.5,2.8,0.5c1.3,0,1.9-1,1.9-1.7c0-1-0.6-1.7-2.1-1.7H77v-3.8L78.7,19.8"/>
	<polyline class="st1" points="87.3,12.8 98.7,12.8 98.7,30.8 94.5,30.8 94.5,17 91.5,17 91.5,30.8 87.3,30.8 87.3,12.8 	"/>
	<path class="st1" d="M101.1,30.8h4.2v-5.9h1.4c4.1,0,5.4-3.7,5.4-6.1c0-2.3-1.5-6-5.4-6h-5.6V30.8 M105.2,16.8h1
		c0.9,0,1.5,0.6,1.5,2.1c0,1.9-1,2.1-1.5,2.1h-1V16.8z"/>
	<path class="st1" d="M119.7,31c4.9,0,6.6-4.6,6.6-9.2s-1.7-9.2-6.6-9.2s-6.6,4.6-6.6,9.2C113.1,26.3,114.8,31,119.7,31 M119.7,26.7
		c-1.5,0-2.2-1.7-2.2-4.9s0.8-4.9,2.2-4.9c1.5,0,2.2,1.7,2.2,4.9S121.2,26.7,119.7,26.7z"/>
	<path class="st1" d="M144.5,30.8h5c1.1,0,5.6-0.4,5.6-5.9c0-4.6-3.5-5.4-5.8-5.4h-0.7V17h5.5v-4.3h-9.6V30.8 M148.6,27.2v-4.1h0.6
		c0.5,0,1.8,0,1.8,1.9s-1.3,2.2-1.8,2.2C149.2,27.2,148.6,27.2,148.6,27.2z"/>
	<polyline class="st1" points="170.1,12.8 174.2,12.8 174.2,19.3 177.1,19.3 177.1,12.8 181.1,12.8 181.1,30.8 177.1,30.8 
		177.1,23.5 174.2,23.5 174.2,30.8 170.1,30.8 170.1,12.8 	"/>
	<polyline class="st1" points="183.9,12.8 188,12.8 188,19.3 188.8,19.3 191.2,12.8 195.6,12.8 192.4,21.3 196.1,30.8 191.3,30.8 
		188.9,23.5 188,23.5 188,30.8 183.9,30.8 183.9,12.8 	"/>
	<polyline class="st1" points="54.3,12.8 62.8,12.8 62.9,17.3 58.5,17.3 58.5,30.8 54.3,30.8 54.3,12.8 	"/>
	<polyline class="st1" points="128.4,12.8 131.9,12.8 135,17 138.2,12.8 141.7,12.8 141.7,30.8 137.5,30.8 137.5,19.8 135,23 
		132.5,19.8 132.5,30.8 128.4,30.8 128.4,12.8 	"/>
	<path class="st1" d="M155.9,30.8h4.2l0.5-3.1h2.9l0.5,3.1h4.2l-3.6-18h-5.1L155.9,30.8 M162.1,18.3l0.8,5.5h-1.6L162.1,18.3z"/>
</g>
</svg>
