<?xml version="1.0" encoding="utf-8"?>
<!-- Generator: Adobe Illustrator 20.1.0, SVG Export Plug-In . SVG Version: 6.00 Build 0)  -->
<svg version="1.1" id="Layer_1" xmlns="http://www.w3.org/2000/svg" xmlns:xlink="http://www.w3.org/1999/xlink" x="0px" y="0px"
	 viewBox="0 0 195.8 42.3" style="enable-background:new 0 0 195.8 42.3;" xml:space="preserve">
<style type="text/css">
	.st0{fill:none;}
	.st1{fill:#14477B;}
	.st2{fill:#00447C;}
</style>
<path class="st0" d="M41,20.7c0,11.1-9,20.2-20.2,20.2c-11.1,0-20.2-9-20.2-20.2c0-11.1,9-20.2,20.2-20.2C32,0.6,41,9.6,41,20.7"/>
<path class="st1" d="M0.3,20.7c0,11.3,9.2,20.5,20.5,20.5S41.3,32,41.3,20.7S32.1,0.2,20.8,0.2C9.5,0.2,0.3,9.4,0.3,20.7 M1,20.7
	C1,9.8,9.9,0.9,20.8,0.9s19.8,8.9,19.8,19.8s-8.9,19.8-19.8,19.8S1,31.7,1,20.7z"/>
<path class="st1" d="M6.7,15.1c5.2-3.4,11-5.4,20.9-3.7c0.5-0.3,0.8-0.6,1-1.3C26.1,9.2,23.5,8.9,20,9c-3.1,0.1-8.7,1.2-11.6,3
	l0.9-1.1c2.1-1.2,7.5-2.8,11.6-2.9c2.9-0.1,4.4,0.1,7.8,1c-0.3-0.6-1-0.9-2-1.3c-3.3-1.5-9.5-1.6-14.5,0.6c0.6-0.4,1.3-0.8,2.1-1.2
	c1.7-0.8,4.4-1.5,7.8-1.4c2.7,0,5.9,1,7.9,3c0.3,0.4,0.5,0.8,0.6,1.1c1.6,0.8,2.5,1.5,3,2.4c0.2,0.4,0.3,0.9,0.2,1.5
	c0.7,0.4,1,0.7,1.3,1.1c0.2,0.4,0.4,0.8,0.4,1.1c0.1,0.5,0.1,1-0.4,1.7c0.5,0.3,1,1,1,1.3c0.2,1.2-0.5,2.3-1.5,3.2
	c-1.2,1-3.7,2.2-5.8,2.7c-4.1,1-7.7,1.5-10.6,2c1.3,0.3,3.1,0.7,5.9,0.7c6.1,0,11.6-2.9,11.6-2.9s-0.1,0.4-0.2,0.7
	c-3.9,2.4-10.1,3.4-12.7,3.2c-2.7-0.1-4.9-0.5-7.2-1.2c-0.7,0.2-1.3,0.4-2,0.7c3.4,1.5,5.9,1.9,8.8,2.1c2.9,0.2,7.8-0.5,11.9-2
	c-0.2,0.2-0.3,0.5-0.5,0.7c-2.1,1.1-6.5,2.2-8.8,2.3c-2.2,0.1-4.9,0-7.3-0.4c-2-0.4-3.7-1-5.4-1.8c-0.3,0.2-0.5,0.5-0.5,0.9
	c6.8,3.5,13.1,3.6,20.3,1.4l-0.7,0.6c-7.9,3.2-14.1,2-18.9-0.3c-0.2-0.1-0.3-0.1-0.5-0.2c0.4,0.8,4.1,3.4,8.2,3.8
	c2.8,0.2,6.3-0.3,8.3-1.1l-1.3,0.5c-1,0.5-3.6,1.6-7.3,1.3c-4.9-0.3-7.6-2.5-8.9-3.6c-0.6-0.5-0.8-1.1-1-1.9
	c-1.1-0.6-1.8-1.2-2.4-2.1c-0.3-0.5-0.3-1.1-0.2-1.6c0-0.2,0.1-0.3,0.1-0.4C7,25.8,6.4,25.4,6.2,25c-0.5-0.9-0.2-1.6,0.1-2.2
	c-0.3-0.3-0.6-0.7-0.7-1c-0.1-0.4-0.2-0.8-0.1-1.2c0.1-0.7,0.5-1.4,1-2c1.1-1.2,2.7-2.2,5.6-3.1c2.8-0.9,3.9-1.1,6.1-1.6
	c2.5-0.6,5.4-0.8,7.9-1.6c-6.9-1.2-14.1-0.1-20,3.9L6.7,15.1 M30.3,10.8c-0.1,0.3-0.5,0.7-0.7,1c0.8,0.2,1.5,0.5,2.2,0.8
	C31.7,11.9,30.9,11.3,30.3,10.8z M9,24.7c-0.4-0.2-0.7-0.4-1.1-0.7c-0.2,0.4,0.2,0.9,0.6,1.2C8.6,25,8.8,24.8,9,24.7z M32.3,15.6
	c0.5,0.2,0.9,0.4,1.4,0.7c0.3-0.6,0.1-1-0.5-1.5C32.9,15.1,32.6,15.4,32.3,15.6z M30.8,16.5c-1,0.5-2.5,1-4.5,1.5
	c-1.7,0.4-5.8,1-10.3,2c-1.4,0.3-5.2,1.2-7.1,2.8c0.5,0.4,0.8,0.5,1.4,0.8c0.8-0.5,1.8-1,3.4-1.4c2.7-0.7,4.8-1,7.2-1.4
	s7-1.3,9.6-2.3c0.8-0.3,1.6-0.7,2.2-1.1C32.5,17.2,30.8,16.5,30.8,16.5z M11.6,27.2c0.4-0.2,0.8-0.4,1.3-0.7c-0.7-0.3-1.4-0.6-2.2-1
	c-0.3,0.2-0.6,0.4-0.9,0.7C10.4,26.5,11,26.9,11.6,27.2z M9.2,27.4c0,0.5,0.3,0.9,0.9,1.4c0.1-0.2,0.2-0.4,0.4-0.7
	C10,27.9,9.6,27.6,9.2,27.4z M12.7,18.9c5-1.5,10.3-1.9,15.6-3.3c-2.1-0.6-3.2-0.8-5.4-0.5c-3.2,0.4-6.7,1.1-9.7,2
	c-1.2,0.4-7.4,2.1-5.6,4.6C7.5,21.6,8.6,20.1,12.7,18.9z M31.4,13.8c-0.8-0.4-1.8-0.7-2.9-1c-0.5,0.4-1,0.7-1.9,1
	c1.4,0.2,2.4,0.6,3.5,0.9C30.4,14.9,31.3,14,31.4,13.8z M33.9,18.6c-0.2,0.1-0.3,0.3-0.5,0.4c-1.1,0.9-2.9,1.6-5.4,2.2
	c-5.2,1.4-8.9,1.6-13.1,2.6c-0.8,0.2-1.7,0.5-2.5,0.8c0.8,0.4,1.7,0.8,2.5,1.1c1.7-0.5,2.6-0.7,5.1-1.1c1-0.2,3.9-0.7,6-1.1
	C29.8,22.7,35.4,21,33.9,18.6z"/>
<g>
	<path class="st2" d="M61,29.7h4.2l0.5-3.1h2.9l0.5,3.1h4.2l-3.6-18h-5.1L61,29.7 M67.2,17.1l0.8,5.5h-1.6L67.2,17.1z"/>
	<path class="st2" d="M77.4,18.7c0.7,0,1.9-0.4,1.9-1.8c0-1.6-1.4-1.7-1.8-1.7c-0.5,0-1.4,0.1-2.3,0.5v-3.9c1.4-0.4,2.4-0.5,3.6-0.5
		c3.4,0,4.9,2.4,4.9,4.7s-1.3,3.7-2.6,4.2v0.3c1.2,0.4,2.9,1.6,2.9,4.3c0,3.4-2.4,5.3-5.4,5.3c-1.6,0-2.7-0.2-3.9-0.9l0.1-3.7
		c1.2,0.5,2,0.5,2.8,0.5c1.3,0,1.9-1,1.9-1.7c0-1-0.6-1.7-2.1-1.7h-1.8v-3.8L77.4,18.7"/>
	<polyline class="st2" points="85.9,11.7 97.3,11.7 97.3,29.7 93.1,29.7 93.1,16.1 90.1,16.1 90.1,29.7 85.9,29.7 85.9,11.7 	"/>
	<path class="st2" d="M99.7,29.7h4.2v-5.9h1.4c4.1,0,5.4-3.7,5.4-6.1c0-2.3-1.5-6-5.4-6h-5.6V29.7 M103.9,15.7h1
		c0.9,0,1.5,0.6,1.5,2.1c0,1.9-1,2.1-1.5,2.1h-1V15.7z"/>
	<path class="st2" d="M118.4,29.9c4.9,0,6.6-4.6,6.6-9.2s-1.7-9.2-6.6-9.2s-6.6,4.6-6.6,9.2S113.4,29.9,118.4,29.9 M118.4,25.6
		c-1.5,0-2.2-1.7-2.2-4.9s0.8-4.9,2.2-4.9c1.5,0,2.2,1.7,2.2,4.9S119.8,25.6,118.4,25.6z"/>
	<path class="st2" d="M143.1,29.7h5c1.1,0,5.6-0.4,5.6-5.9c0-4.6-3.5-5.4-5.8-5.4h-0.7V16h5.5v-4.3h-9.6V29.7 M147.2,26.1V22h0.6
		c0.5,0,1.8,0,1.8,1.9s-1.3,2.2-1.8,2.2C147.8,26.1,147.2,26.1,147.2,26.1z"/>
	<polyline class="st2" points="168.7,11.7 172.8,11.7 172.8,18.2 175.7,18.2 175.7,11.7 179.8,11.7 179.8,29.7 175.7,29.7 
		175.7,22.5 172.8,22.5 172.8,29.7 168.7,29.7 168.7,11.7 	"/>
	<polyline class="st2" points="182.5,11.7 186.6,11.7 186.6,18.2 187.5,18.2 189.8,11.7 194.3,11.7 191.1,20.3 194.7,29.7 
		189.9,29.7 187.6,22.5 186.6,22.5 186.6,29.7 182.5,29.7 182.5,11.7 	"/>
	<polyline class="st2" points="52.9,11.7 61.5,11.7 61.5,16.2 57.2,16.2 57.2,29.7 52.9,29.7 52.9,11.7 	"/>
	<polyline class="st2" points="127,11.7 130.5,11.7 133.7,16 136.8,11.7 140.3,11.7 140.3,29.7 136.2,29.7 136.2,18.7 133.7,21.9 
		131.2,18.7 131.2,29.7 127,29.7 127,11.7 	"/>
	<path class="st2" d="M154.5,29.7h4.2l0.5-3.1h2.9l0.5,3.1h4.2l-3.6-18h-5.3L154.5,29.7 M160.7,17.2l0.8,5.5h-1.6L160.7,17.2z"/>
</g>
</svg>
