<?xml version="1.0" encoding="utf-8"?>
<!-- Generator: Adobe Illustrator 19.1.0, SVG Export Plug-In . SVG Version: 6.00 Build 0)  -->
<svg version="1.1" id="Layer_1" xmlns="http://www.w3.org/2000/svg" xmlns:xlink="http://www.w3.org/1999/xlink" x="0px" y="0px"
	 viewBox="0 0 248 101.6" style="enable-background:new 0 0 248 101.6;" xml:space="preserve">
<style type="text/css">
	.st0{fill-rule:evenodd;clip-rule:evenodd;fill:none;}
	.st1{fill-rule:evenodd;clip-rule:evenodd;fill:#14477B;}
	.st2{fill:#00447C;}
</style>
<path class="st0" d="M67.4,52.2c0,11.1-9,20.2-20.2,20.2c-11.1,0-20.2-9-20.2-20.2c0-11.1,9-20.2,20.2-20.2
	C58.4,32.1,67.4,41.1,67.4,52.2"/>
<path class="st1" d="M26.7,52.2c0,11.3,9.2,20.5,20.5,20.5c11.3,0,20.5-9.2,20.5-20.5c0-11.3-9.2-20.5-20.5-20.5
	C35.9,31.7,26.7,40.9,26.7,52.2 M27.4,52.2c0-10.9,8.9-19.8,19.8-19.8c10.9,0,19.8,8.9,19.8,19.8c0,10.9-8.9,19.8-19.8,19.8
	C36.3,72,27.4,63.2,27.4,52.2z"/>
<path class="st1" d="M33.1,46.6c5.2-3.4,11-5.4,20.9-3.7c0.5-0.3,0.8-0.6,1-1.3c-2.5-0.9-5.1-1.2-8.6-1.1c-3.1,0.1-8.7,1.2-11.6,3
	l0.9-1.1c2.1-1.2,7.5-2.8,11.6-2.9c2.9-0.1,4.4,0.1,7.8,1c-0.3-0.6-1-0.9-2-1.3c-3.3-1.5-9.5-1.6-14.5,0.6c0.6-0.4,1.3-0.8,2.1-1.2
	c1.7-0.8,4.4-1.5,7.8-1.4c2.7,0,5.9,1,7.9,3c0.3,0.4,0.5,0.8,0.6,1.1c1.6,0.8,2.5,1.5,3,2.4c0.2,0.4,0.3,0.9,0.2,1.5
	c0.7,0.4,1,0.7,1.3,1.1c0.2,0.4,0.4,0.8,0.4,1.1c0.1,0.5,0.1,1-0.4,1.7c0.5,0.3,1,1,1,1.3c0.2,1.2-0.5,2.3-1.5,3.2
	c-1.2,1-3.7,2.2-5.8,2.7c-4.1,1-7.7,1.5-10.6,2c1.3,0.3,3.1,0.7,5.9,0.7c6.1,0,11.6-2.9,11.6-2.9s-0.1,0.4-0.2,0.7
	c-3.9,2.4-10.1,3.4-12.7,3.2c-2.7-0.1-4.9-0.5-7.2-1.2c-0.7,0.2-1.3,0.4-2,0.7c3.4,1.5,5.9,1.9,8.8,2.1c2.9,0.2,7.8-0.5,11.9-2
	c-0.2,0.2-0.3,0.5-0.5,0.7c-2.1,1.1-6.5,2.2-8.8,2.3c-2.2,0.1-4.9,0-7.3-0.4c-2-0.4-3.7-1-5.4-1.8c-0.3,0.2-0.5,0.5-0.5,0.9
	c6.8,3.5,13.1,3.6,20.3,1.4l-0.7,0.6c-7.9,3.2-14.1,2-18.9-0.3c-0.2-0.1-0.3-0.1-0.5-0.2c0.4,0.8,4.1,3.4,8.2,3.8
	c2.8,0.2,6.3-0.3,8.3-1.1L53.6,66c-1,0.5-3.6,1.6-7.3,1.3c-4.9-0.3-7.6-2.5-8.9-3.6c-0.6-0.5-0.8-1.1-1-1.9
	c-1.1-0.6-1.8-1.2-2.4-2.1c-0.3-0.5-0.3-1.1-0.2-1.6c0-0.2,0.1-0.3,0.1-0.4c-0.5-0.4-1.1-0.8-1.3-1.2c-0.5-0.9-0.2-1.6,0.1-2.2
	c-0.3-0.3-0.6-0.7-0.7-1c-0.1-0.4-0.2-0.8-0.1-1.2c0.1-0.7,0.5-1.4,1-2c1.1-1.2,2.7-2.2,5.6-3.1c2.8-0.9,3.9-1.1,6.1-1.6
	c2.5-0.6,5.4-0.8,7.9-1.6c-6.9-1.2-14.1-0.1-20,3.9L33.1,46.6 M56.7,42.3c-0.1,0.3-0.5,0.7-0.7,1c0.8,0.2,1.5,0.5,2.2,0.8
	C58.1,43.4,57.3,42.8,56.7,42.3z M35.4,56.2c-0.4-0.2-0.7-0.4-1.1-0.7c-0.2,0.4,0.2,0.9,0.6,1.2C35,56.5,35.2,56.3,35.4,56.2z
	 M58.7,47.1c0.5,0.2,0.9,0.4,1.4,0.7c0.3-0.6,0.1-1-0.5-1.5C59.3,46.6,59,46.9,58.7,47.1z M57.2,48c-1,0.5-2.5,1-4.5,1.5
	c-1.7,0.4-5.8,1-10.3,2c-1.4,0.3-5.2,1.2-7.1,2.8c0.5,0.4,0.8,0.5,1.4,0.8c0.8-0.5,1.8-1,3.4-1.4c2.7-0.7,4.8-1,7.2-1.4
	c2.4-0.4,7-1.3,9.6-2.3c0.8-0.3,1.6-0.7,2.2-1.1C58.9,48.7,57.2,48,57.2,48z M38,58.7c0.4-0.2,0.8-0.4,1.3-0.7
	c-0.7-0.3-1.4-0.6-2.2-1c-0.3,0.2-0.6,0.4-0.9,0.7C36.8,58,37.4,58.4,38,58.7z M35.6,58.9c0,0.5,0.3,0.9,0.9,1.4
	c0.1-0.2,0.2-0.4,0.4-0.7C36.4,59.4,36,59.1,35.6,58.9z M39.1,50.4c5-1.5,10.3-1.9,15.6-3.3c-2.1-0.6-3.2-0.8-5.4-0.5
	c-3.2,0.4-6.7,1.1-9.7,2c-1.2,0.4-7.4,2.1-5.6,4.6C33.9,53.1,35,51.6,39.1,50.4z M57.8,45.3c-0.8-0.4-1.8-0.7-2.9-1
	c-0.5,0.4-1,0.7-1.9,1c1.4,0.2,2.4,0.6,3.5,0.9C56.8,46.4,57.7,45.5,57.8,45.3z M60.3,50.1c-0.2,0.1-0.3,0.3-0.5,0.4
	c-1.1,0.9-2.9,1.6-5.4,2.2c-5.2,1.4-8.9,1.6-13.1,2.6c-0.8,0.2-1.7,0.5-2.5,0.8c0.8,0.4,1.7,0.8,2.5,1.1c1.7-0.5,2.6-0.7,5.1-1.1
	c1-0.2,3.9-0.7,6-1.1C56.2,54.2,61.8,52.5,60.3,50.1z"/>
<g>
	<path class="st2" d="M87.4,61.2h4.2l0.5-3.1h2.9l0.5,3.1h4.2l-3.6-18H91L87.4,61.2 M93.6,48.6l0.8,5.5h-1.6L93.6,48.6z"/>
	<path class="st2" d="M103.8,50.2c0.7,0,1.9-0.4,1.9-1.8c0-1.6-1.4-1.7-1.8-1.7c-0.5,0-1.4,0.1-2.3,0.5l0-3.9
		c1.4-0.4,2.4-0.5,3.6-0.5c3.4,0,4.9,2.4,4.9,4.7c0,2.3-1.3,3.7-2.6,4.2V52c1.2,0.4,2.9,1.6,2.9,4.3c0,3.4-2.4,5.3-5.4,5.3
		c-1.6,0-2.7-0.2-3.9-0.9l0.1-3.7c1.2,0.5,2,0.5,2.8,0.5c1.3,0,1.9-1,1.9-1.7c0-1-0.6-1.7-2.1-1.7H102v-3.8H103.8"/>
	<polyline class="st2" points="112.3,43.2 123.7,43.2 123.7,61.2 119.5,61.2 119.5,47.6 116.5,47.6 116.5,61.2 112.3,61.2 
		112.3,43.2 	"/>
	<path class="st2" d="M126.1,61.2l4.2,0v-5.9h1.4c4.1,0,5.4-3.7,5.4-6.1c0-2.3-1.5-6-5.4-6l-5.6,0V61.2 M130.3,47.2h1
		c0.9,0,1.5,0.6,1.5,2.1c0,1.9-1,2.1-1.5,2.1h-1V47.2z"/>
	<path class="st2" d="M144.8,61.4c4.9,0,6.6-4.6,6.6-9.2c0-4.6-1.7-9.2-6.6-9.2s-6.6,4.6-6.6,9.2C138.2,56.8,139.8,61.4,144.8,61.4
		 M144.8,57.1c-1.5,0-2.2-1.7-2.2-4.9s0.8-4.9,2.2-4.9c1.5,0,2.2,1.7,2.2,4.9S146.2,57.1,144.8,57.1z"/>
	<path class="st2" d="M169.5,61.2h5c1.1,0,5.6-0.4,5.6-5.9c0-4.6-3.5-5.4-5.8-5.4h-0.7v-2.4h5.5v-4.3h-9.6V61.2 M173.6,57.6v-4.1
		h0.6c0.5,0,1.8,0,1.8,1.9c0,1.9-1.3,2.2-1.8,2.2H173.6z"/>
	<polyline class="st2" points="195.1,43.2 199.2,43.2 199.2,49.7 202.1,49.7 202.1,43.2 206.2,43.2 206.2,61.2 202.1,61.2 202.1,54 
		199.2,54 199.2,61.2 195.1,61.2 195.1,43.2 	"/>
	<polyline class="st2" points="208.9,43.2 213,43.2 213,49.7 213.9,49.7 216.2,43.2 220.7,43.2 217.5,51.8 221.1,61.2 216.3,61.2 
		214,54 213,54 213,61.2 208.9,61.2 208.9,43.2 	"/>
	<polyline class="st2" points="79.3,43.2 87.9,43.2 87.9,47.7 83.6,47.7 83.6,61.2 79.3,61.2 79.3,43.2 	"/>
	<polyline class="st2" points="153.4,43.2 156.9,43.2 160.1,47.5 163.2,43.2 166.7,43.2 166.7,61.2 162.6,61.2 162.6,50.2 
		160.1,53.4 157.6,50.2 157.6,61.2 153.4,61.2 153.4,43.2 	"/>
	<path class="st2" d="M180.9,61.2h4.2l0.5-3.1h2.9l0.5,3.1h4.2l-3.6-18h-5.3L180.9,61.2 M187.1,48.7l0.8,5.5h-1.6L187.1,48.7z"/>
</g>
</svg>
