<svg id="Layer_1" xmlns="http://www.w3.org/2000/svg" viewBox="0 0 197.5 43.5"><style>.st0{fill:none}.st1{fill:#fff}</style><path class="st0" d="M42.4 21.8c0 11.1-9 20.2-20.2 20.2C11.1 41.9 2 32.9 2 21.7 2 10.6 11 1.5 22.2 1.5c11.1 0 20.2 9.2 20.2 20.3"/><path class="st1" d="M1.7 21.8c0 11.3 9.2 20.5 20.5 20.5s20.5-9.2 20.5-20.5S33.5 1.3 22.2 1.3 1.7 10.5 1.7 21.8m.7 0C2.4 10.8 11.3 2 22.2 2S42 10.8 42 21.8s-8.9 19.8-19.8 19.8S2.4 32.7 2.4 21.8z"/><path class="st1" d="M8.1 16.2c5.2-3.4 11-5.4 20.9-3.7.5-.3.8-.6 1-1.3-2.5-.9-5.1-1.2-8.6-1.1-3.1.1-8.7 1.2-11.6 3l.9-1.1c2.1-1.2 7.5-2.8 11.6-2.9 2.9-.1 4.4.1 7.8 1-.3-.6-1-.9-2-1.3-3.3-1.5-9.5-1.6-14.5.6.6-.4 1.3-.8 2.1-1.2 1.7-.8 4.4-1.5 7.8-1.4 2.7 0 5.9 1 7.9 3 .3.4.5.8.6 1.1 1.6.8 2.5 1.5 3 2.4.2.4.3.9.2 1.5.7.4 1 .7 1.3 1.1.2.4.4.8.4 1.1.1.5.1 1-.4 1.7.5.3 1 1 1 1.3.2 1.2-.5 2.3-1.5 3.2-1.2 1-3.7 2.2-5.8 2.7-4.1 1-7.7 1.5-10.6 2 1.3.3 3.1.7 5.9.7 6.1 0 11.6-2.9 11.6-2.9l-.2.6c-3.9 2.4-10.1 3.4-12.7 3.2-2.7-.1-4.9-.5-7.2-1.2-.7.2-1.3.4-2 .7 3.4 1.5 5.9 1.9 8.8 2.1 2.9.2 7.8-.5 11.9-2-.2.2-.3.5-.5.7-2.1 1.1-6.5 2.2-8.8 2.3-2.2.1-4.9 0-7.3-.4-2-.4-3.7-1-5.4-1.8-.3.2-.5.5-.5.9 6.8 3.5 13.1 3.6 20.3 1.4l-.7.6c-7.9 3.2-14.1 2-18.9-.3-.2-.1-.3-.1-.5-.2.4.8 4.1 3.4 8.2 3.8 2.8.2 6.3-.3 8.3-1.1l-1.2.6c-1 .5-3.6 1.6-7.3 1.3-4.9-.3-7.6-2.5-8.9-3.6-.6-.5-.8-1.1-1-1.9-1.1-.6-1.8-1.2-2.4-2.1-.3-.5-.3-1.1-.2-1.6 0-.2.1-.3.1-.4-.5-.4-1.1-.8-1.3-1.2-.5-.9-.2-1.6.1-2.2-.3-.3-.6-.7-.7-1-.1-.3-.2-.7-.1-1.1.1-.7.5-1.4 1-2 1.1-1.2 2.7-2.2 5.6-3.1 2.8-.9 3.9-1.1 6.1-1.6 2.5-.6 5.4-.8 7.9-1.6-6.9-1.3-14.1-.2-19.9 3.8l.4-1.1m23.5-4.4c-.1.3-.5.7-.7 1 .8.2 1.5.5 2.2.8 0-.6-.8-1.3-1.5-1.8zM10.3 25.7c-.4-.2-.7-.4-1.1-.7-.2.4.2.9.6 1.2.2-.2.3-.4.5-.5zm23.3-9c.5.2.9.4 1.4.7.3-.6.1-1-.5-1.5-.3.3-.6.6-.9.8zm-1.4.8c-1 .5-2.5 1-4.5 1.5-1.7.4-5.8 1-10.3 2-1.4.3-5.2 1.2-7.1 2.8.5.4.8.5 1.4.8.8-.5 1.8-1 3.4-1.4 2.7-.7 4.8-1 7.2-1.4s7-1.3 9.6-2.3c.8-.3 1.6-.7 2.2-1.1-.3-.1-1.9-.9-1.9-.9zM12.9 28.3c.4-.2.8-.4 1.3-.7-.7-.3-1.4-.6-2.2-1-.3.2-.6.4-.9.7.7.2 1.2.5 1.8 1zm-2.3.2c0 .5.3.9.9 1.4.1-.2.2-.4.4-.7-.5-.2-.9-.5-1.3-.7zM14 20c5-1.5 10.3-1.9 15.6-3.3-2.1-.6-3.2-.8-5.4-.5-3.2.4-6.7 1.1-9.7 2-1.2.4-7.4 2.1-5.6 4.6 0-.1 1-1.6 5.1-2.8zm18.8-5.2c-.8-.4-1.8-.7-2.9-1-.5.4-1 .7-1.9 1 1.4.2 2.4.6 3.5.9.2.3 1.1-.7 1.3-.9zm2.5 4.9c-.2.1-.3.3-.5.4-1.1.9-2.9 1.6-5.4 2.2-5.2 1.4-8.9 1.6-13.1 2.6-.8.2-1.7.5-2.5.8.8.4 1.7.8 2.5 1.1 1.7-.5 2.6-.7 5.1-1.1 1-.2 3.9-.7 6-1.1 3.7-.8 9.4-2.6 7.9-4.9zm27.1 11.1h4.2l.5-3.1H70l.5 3.1h4.2l-3.6-18h-5.2l-3.5 18m6.2-12.6l.8 5.5h-1.6l.8-5.5zm10.1 1.6c.7 0 1.9-.4 1.9-1.8 0-1.6-1.4-1.7-1.8-1.7-.5 0-1.4.1-2.3.5v-3.9c1.4-.4 2.4-.5 3.6-.5 3.4 0 4.9 2.4 4.9 4.7s-1.3 3.7-2.6 4.2v.2c1.2.4 2.9 1.6 2.9 4.3 0 3.4-2.4 5.3-5.4 5.3-1.6 0-2.7-.2-3.9-.9l.1-3.7c1.2.5 2 .5 2.8.5 1.3 0 1.9-1 1.9-1.7 0-1-.6-1.7-2.1-1.7H77v-3.8h1.7m8.6-7h11.4v18h-4.2V17h-3v13.8h-4.2v-18m13.8 18h4.2v-5.9h1.4c4.1 0 5.4-3.7 5.4-6.1 0-2.3-1.5-6-5.4-6h-5.6v18m4.1-14h1c.9 0 1.5.6 1.5 2.1 0 1.9-1 2.1-1.5 2.1h-1v-4.2zM119.7 31c4.9 0 6.6-4.6 6.6-9.2s-1.7-9.2-6.6-9.2-6.6 4.6-6.6 9.2c0 4.5 1.7 9.2 6.6 9.2m0-4.3c-1.5 0-2.2-1.7-2.2-4.9s.8-4.9 2.2-4.9c1.5 0 2.2 1.7 2.2 4.9s-.7 4.9-2.2 4.9zm24.8 4.1h5c1.1 0 5.6-.4 5.6-5.9 0-4.6-3.5-5.4-5.8-5.4h-.7V17h5.5v-4.3h-9.6v18.1m4.1-3.6v-4.1h.6c.5 0 1.8 0 1.8 1.9s-1.3 2.2-1.8 2.2h-.6zm21.5-14.4h4.1v6.5h2.9v-6.5h4v18h-4v-7.3h-2.9v7.3h-4.1v-18m13.8 0h4.1v6.5h.8l2.4-6.5h4.4l-3.2 8.5 3.7 9.5h-4.8l-2.4-7.3h-.9v7.3h-4.1v-18m-129.6 0h8.5l.1 4.5h-4.4v13.5h-4.2v-18m74.1 0h3.5L135 17l3.2-4.2h3.5v18h-4.2v-11L135 23l-2.5-3.2v11h-4.1v-18m27.5 18h4.2l.5-3.1h2.9l.5 3.1h4.2l-3.6-18h-5.1l-3.6 18m6.2-12.5l.8 5.5h-1.6l.8-5.5z"/></svg>