<svg id="Слой_1" data-name="Слой 1" xmlns="http://www.w3.org/2000/svg" viewBox="0 0 30.41 30.34"><defs><style>.cls-1{fill:#00457c;fill-rule:evenodd;}</style></defs><title>logo_footer_gazpromb</title><path class="cls-1" d="M2,10c5.25-3.44,11-5.44,20.88-3.75a1.71,1.71,0,0,0,1-1.25,23.5,23.5,0,0,0-8.56-1.14c-3.1.09-8.66,1.24-11.64,3L4.58,5.72A29.91,29.91,0,0,1,16.14,2.8a23,23,0,0,1,7.76,1,3.91,3.91,0,0,0-2-1.34C18.57,1,12.41.87,7.37,3.09A15.48,15.48,0,0,1,9.45,1.91,18.5,18.5,0,0,1,17.24.47a12,12,0,0,1,7.92,3,2.91,2.91,0,0,1,.6,1.13,6.7,6.7,0,0,1,3,2.41A2.44,2.44,0,0,1,29,8.46a3.88,3.88,0,0,1,1.28,1.15,2.69,2.69,0,0,1,.45,1.13,2,2,0,0,1-.39,1.69,2.31,2.31,0,0,1,1,1.33A3.6,3.6,0,0,1,29.8,17,16.39,16.39,0,0,1,24,19.72c-4.11,1-7.74,1.47-10.63,2a23.1,23.1,0,0,0,5.93.73,27.61,27.61,0,0,0,11.55-2.9s-0.12.38-.24,0.71a27.61,27.61,0,0,1-12.74,3.23,28.17,28.17,0,0,1-7.16-1.2,12.76,12.76,0,0,0-2,.68,23.27,23.27,0,0,0,8.79,2.08,32.61,32.61,0,0,0,11.9-2c-0.19.18-.28,0.48-0.48,0.66A27.41,27.41,0,0,1,20.2,26a33.72,33.72,0,0,1-7.28-.44A24.69,24.69,0,0,1,7.51,23.8a1.29,1.29,0,0,0-.53.86C13.73,28.2,20.06,28.27,27.26,26l-0.66.63c-7.92,3.21-14.12,2-18.91-.35a3.68,3.68,0,0,1-.49-0.24c0.44,0.77,4.11,3.45,8.2,3.78a20.71,20.71,0,0,0,8.31-1.07l-1.19.62a14.53,14.53,0,0,1-7.29,1.34,14,14,0,0,1-8.87-3.62,3.46,3.46,0,0,1-1-1.89A5.73,5.73,0,0,1,3,23.18a2.15,2.15,0,0,1-.18-1.61,2,2,0,0,1,.13-0.44,4.64,4.64,0,0,1-1.3-1.21,2.09,2.09,0,0,1,.15-2.2,3.35,3.35,0,0,1-.68-1A3,3,0,0,1,1,15.52a3.82,3.82,0,0,1,1-2C3,12.3,4.7,11.34,7.58,10.39a51.62,51.62,0,0,1,6.07-1.56c2.48-.58,5.44-0.76,7.93-1.63a26.76,26.76,0,0,0-20,3.92L2,10M25.57,5.73a2.82,2.82,0,0,1-.7,1,21.9,21.9,0,0,1,2.24.75A3.17,3.17,0,0,0,25.57,5.73ZM4.27,19.55a12.45,12.45,0,0,1-1.12-.68A1,1,0,0,0,3.72,20C3.89,19.85,4.09,19.71,4.27,19.55Zm23.31-9a9.83,9.83,0,0,1,1.38.73c0.31-.6.12-1-0.53-1.54A5.46,5.46,0,0,1,27.58,10.51Zm-1.48.91a26.86,26.86,0,0,1-4.53,1.47c-1.7.43-5.85,1-10.3,2-1.42.3-5.23,1.21-7.11,2.8a8.16,8.16,0,0,0,1.43.85A11.87,11.87,0,0,1,9,17.15a64.37,64.37,0,0,1,7.23-1.44,65.33,65.33,0,0,0,9.57-2.25A8.12,8.12,0,0,0,28,12.33,7.58,7.58,0,0,0,26.1,11.42ZM6.86,22.06a9.48,9.48,0,0,1,1.35-.65c-0.71-.3-1.44-0.62-2.18-1a5.36,5.36,0,0,0-.87.66C5.71,21.43,6.28,21.75,6.86,22.06Zm-2.35.23a1.8,1.8,0,0,0,.88,1.36A2,2,0,0,1,5.75,23C5.33,22.77,4.91,22.53,4.51,22.29ZM8,13.84c5-1.47,10.26-1.92,15.58-3.33A12.13,12.13,0,0,0,18.13,10a60.65,60.65,0,0,0-9.71,2C7.24,12.28,1,14,2.83,16.49,2.83,16.52,3.89,15,8,13.84ZM26.73,8.72a19.88,19.88,0,0,0-2.92-1,6.82,6.82,0,0,1-1.85,1,31.38,31.38,0,0,1,3.5.94A3.06,3.06,0,0,0,26.73,8.72Zm2.47,4.82-0.51.4a15.81,15.81,0,0,1-5.41,2.23c-5.15,1.39-8.89,1.59-13.15,2.63a17.87,17.87,0,0,0-2.5.81c0.8,0.4,1.66.77,2.53,1.11a37.09,37.09,0,0,1,5.06-1.14c1-.16,3.89-0.68,6-1.12C25.08,17.63,30.69,15.86,29.2,13.54Z" transform="translate(-0.95 -0.47)"/></svg>