<?xml version="1.0" encoding="utf-8"?>
<!-- Generator: Adobe Illustrator 19.1.0, SVG Export Plug-In . SVG Version: 6.00 Build 0)  -->
<svg version="1.1" id="Layer_1" xmlns="http://www.w3.org/2000/svg" xmlns:xlink="http://www.w3.org/1999/xlink" x="0px" y="0px"
	 viewBox="0 0 33 37" style="enable-background:new 0 0 33 37;" xml:space="preserve">
<style type="text/css">
	.st0{fill:#064277;}
	.st1{fill:#FFFFFF;}
</style>
<polygon class="st0" points="30,28 30,23 28,23 28,28 21,28 21,35 2,35 2,2 28,2 28,9 30,9 30,0 0,0 0,37 21,37 30,28 "/>
<g>
	<rect x="11" y="10" class="st0" width="22" height="11"/>
</g>
<g>
	<path class="st1" d="M17.8,14.6c0,0.6-0.2,1.1-0.6,1.4c-0.4,0.3-1,0.5-1.8,0.5h-0.7V19h-0.7v-6.2h1.6C17,12.8,17.8,13.4,17.8,14.6z
		 M14.6,15.9h0.6c0.6,0,1.1-0.1,1.4-0.3c0.3-0.2,0.4-0.5,0.4-1c0-0.4-0.1-0.7-0.4-0.9c-0.3-0.2-0.7-0.3-1.2-0.3h-0.8V15.9z"/>
	<path class="st1" d="M24,15.8c0,1-0.3,1.8-0.8,2.3c-0.6,0.5-1.3,0.8-2.4,0.8h-1.7v-6.2H21c1,0,1.7,0.3,2.2,0.8
		C23.7,14.1,24,14.9,24,15.8z M23.3,15.9c0-0.8-0.2-1.4-0.6-1.8c-0.4-0.4-1-0.6-1.8-0.6h-1v4.9h0.9c0.9,0,1.5-0.2,1.9-0.6
		S23.3,16.7,23.3,15.9z"/>
	<path class="st1" d="M26.1,19h-0.7v-6.2h3.4v0.6h-2.7v2.3h2.6v0.6h-2.6V19z"/>
</g>
</svg>
