<svg id="Слой_1" data-name="Слой 1" xmlns="http://www.w3.org/2000/svg" viewBox="0 0 170.66 37.83"><defs><style>.cls-1,.cls-2{fill:#fff}.cls-1{fill-rule:evenodd}</style></defs><title>logo_header_gazpromb</title><path class="cls-1" d="M2.32 12.88C8.87 8.6 16.1 6.1 28.36 8.21a2.14 2.14 0 0 0 1.22-1.56 29.3 29.3 0 0 0-10.67-1.42C15 5.34 8.11 6.77 4.4 9l1.13-1.45C8.12 6 14.88 4 19.94 3.91a28.64 28.64 0 0 1 9.67 1.28c-.37-.73-1.25-1.09-2.54-1.67C23 1.67 15.29 1.5 9 4.27a19.31 19.31 0 0 1 2.6-1.47A23.07 23.07 0 0 1 21.31 1c3.39.05 7.41 1.24 9.88 3.68a3.62 3.62 0 0 1 .75 1.41 8.35 8.35 0 0 1 3.72 3 3 3 0 0 1 .25 1.91 4.84 4.84 0 0 1 1.6 1.43 3.36 3.36 0 0 1 .56 1.41 2.43 2.43 0 0 1-.49 2.1 2.88 2.88 0 0 1 1.28 1.66c.31 1.47-.64 2.91-1.89 4a20.44 20.44 0 0 1-7.18 3.4c-5.13 1.29-9.65 1.84-13.25 2.5a28.81 28.81 0 0 0 7.39.91 34.43 34.43 0 0 0 14.4-3.62s-.15.48-.3.89c-4.85 2.94-12.59 4.18-15.88 4a35.13 35.13 0 0 1-8.93-1.5 15.91 15.91 0 0 0-2.48.85 29 29 0 0 0 11 2.6 40.67 40.67 0 0 0 14.84-2.46c-.23.23-.35.6-.59.82A34.18 34.18 0 0 1 25 32.88a42.05 42.05 0 0 1-9.08-.54 30.79 30.79 0 0 1-6.75-2.24 1.6 1.6 0 0 0-.66 1.08c8.42 4.4 16.32 4.5 25.29 1.71l-.8.79c-9.88 4-17.61 2.45-23.58-.43a4.59 4.59 0 0 1-.61-.29c.55 1 5.12 4.3 10.22 4.72a25.82 25.82 0 0 0 10.37-1.33l-1.49.78a18.12 18.12 0 0 1-9.09 1.68 17.47 17.47 0 0 1-11.08-4.53 4.32 4.32 0 0 1-1.26-2.36 7.14 7.14 0 0 1-3-2.59 2.68 2.68 0 0 1-.23-2 2.44 2.44 0 0 1 .16-.55 5.79 5.79 0 0 1-1.62-1.51A2.61 2.61 0 0 1 2 22.51a4.17 4.17 0 0 1-.85-1.24A3.75 3.75 0 0 1 1 19.76a4.77 4.77 0 0 1 1.23-2.47c1.33-1.53 3.42-2.73 7-3.92a64.37 64.37 0 0 1 7.57-1.95c3.09-.72 6.79-.95 9.88-2-8.59-1.54-17.55-.16-24.85 4.86l.5-1.4M31.7 7.57a3.52 3.52 0 0 1-.88 1.25 27.31 27.31 0 0 1 2.79.94 4 4 0 0 0-1.91-2.19zM5.13 24.8a15.52 15.52 0 0 1-1.4-.85 1.24 1.24 0 0 0 .72 1.44c.22-.22.46-.39.68-.59zM34.2 13.52a12.26 12.26 0 0 1 1.72.91c.39-.74.15-1.23-.67-1.92a6.81 6.81 0 0 1-1.05 1.01zm-1.84 1.13a33.5 33.5 0 0 1-5.65 1.84c-2.12.51-7.3 1.27-12.85 2.51-1.77.38-6.52 1.51-8.86 3.5a10.18 10.18 0 0 0 1.78 1.06A14.8 14.8 0 0 1 11 21.8a80.27 80.27 0 0 1 9-1.8 81.47 81.47 0 0 0 12-2.8 10.12 10.12 0 0 0 2.71-1.41 9.46 9.46 0 0 0-2.35-1.13zm-24 13.26a11.82 11.82 0 0 1 1.64-.8c-.89-.37-1.8-.77-2.72-1.2a6.68 6.68 0 0 0-1.09.82c.75.41 1.45.81 2.17 1.19zm-2.93.29a2.24 2.24 0 0 0 1.09 1.7 2.48 2.48 0 0 1 .48-.82c-.55-.27-1.07-.56-1.57-.87zm4.3-10.54c6.24-1.83 12.8-2.39 19.43-4.15a15.12 15.12 0 0 0-6.75-.68 75.63 75.63 0 0 0-12.1 2.44c-1.47.44-9.2 2.63-7 5.7.03.03 1.35-1.81 6.43-3.3zm23.41-6.38A24.79 24.79 0 0 0 29.51 10a8.5 8.5 0 0 1-2.31 1.3 39.13 39.13 0 0 1 4.36 1.17c.26.15 1.44-.93 1.59-1.18zm3.08 6c-.19.16-.4.32-.63.5a19.71 19.71 0 0 1-6.74 2.78c-6.42 1.73-11.09 2-16.39 3.28a22.28 22.28 0 0 0-3.11 1c1 .5 2.06 1 3.16 1.38a46.25 46.25 0 0 1 6.31-1.42c1.19-.2 4.85-.84 7.5-1.4 4.77-1 11.77-3.21 9.9-6.1z" transform="translate(-1 -1)"/><path class="cls-2" d="M63.73 27.15h3.42l.41-2.5h2.35l.41 2.5h3.41l-2.88-14.5h-4.23l-2.89 14.5m5-10.12l.64 4.43H68.1zM77 18.27a1.48 1.48 0 0 0 1.55-1.42A1.34 1.34 0 0 0 77 15.5a4.48 4.48 0 0 0-1.85.41v-3.14a10.69 10.69 0 0 1 2.94-.38 3.7 3.7 0 0 1 4 3.8A3.53 3.53 0 0 1 80 19.57v.14a3.36 3.36 0 0 1 2.3 3.48 4.05 4.05 0 0 1-4.35 4.25 6 6 0 0 1-3.18-.76l.06-3a5 5 0 0 0 2.23.44 1.4 1.4 0 0 0 1.51-1.38c0-.82-.52-1.36-1.66-1.36h-1.39v-3.11H77" transform="translate(-1 -1)"/><path class="cls-2" d="M82.86 11.64h9.18v14.5h-3.36v-11h-2.46v11.01l-3.36-.01v-14.5"/><path class="cls-2" d="M95 27.15h3.37v-4.78h1.13c3.33 0 4.36-3 4.36-4.89s-1.17-4.83-4.36-4.82H95v14.5m3.37-11.3h.8c.77 0 1.24.45 1.24 1.66 0 1.57-.81 1.68-1.24 1.68h-.8v-3.36zM110 27.33c4 0 5.33-3.72 5.33-7.45S114 12.44 110 12.44s-5.33 3.72-5.33 7.44 1.34 7.45 5.33 7.45m0-3.51c-1.18 0-1.8-1.38-1.8-3.94s.62-3.94 1.8-3.94 1.8 1.38 1.8 3.94-.57 3.94-1.8 3.94zm20 3.33h4a4.37 4.37 0 0 0 4.52-4.75c0-3.71-2.82-4.35-4.64-4.35h-.59v-1.92h4.45v-3.48H130v14.5m3.3-2.9v-3.3h.49a1.31 1.31 0 0 1 1.46 1.51 1.54 1.54 0 0 1-1.46 1.79h-.49z" transform="translate(-1 -1)"/><path class="cls-2" d="M149.68 11.64h3.3v5.23h2.35v-5.23h3.29v14.5h-3.29v-5.79h-2.35v5.79h-3.3v-14.5m11.15 0h3.3l-.01 5.23h.71l1.89-5.23h3.58l-2.57 6.89 2.93 7.61h-3.87l-1.89-5.82h-.78l.01 5.82h-3.3v-14.5m-104.61.01l6.9-.01v3.63h-3.47v10.88h-3.43v-14.5m59.78 0h2.86l2.52 3.41 2.54-3.41h2.85v14.5h-3.36V17.3l-2.03 2.54-2.02-2.54v8.85H116v-14.5"/><path class="cls-2" d="M139.23 27.17h3.42l.41-2.51h2.35l.42 2.51h3.41l-2.88-14.5h-4.24l-2.88 14.5m5-10.12l.64 4.42h-1.28z" transform="translate(-1 -1)"/></svg>