<svg id="Слой_1" data-name="Слой 1" xmlns="http://www.w3.org/2000/svg" viewBox="0 0 30.41 30.34"><defs><style>.cls-1{fill:#00457c;fill-rule:evenodd}</style></defs><title>logo_footer_gazpromb</title><path class="cls-1" d="M2 10c5.25-3.44 11-5.44 20.88-3.75a1.71 1.71 0 0 0 1-1.25 23.5 23.5 0 0 0-8.56-1.14c-3.1.09-8.66 1.24-11.64 3l.9-1.14A29.91 29.91 0 0 1 16.14 2.8a23 23 0 0 1 7.76 1 3.91 3.91 0 0 0-2-1.34C18.57 1 12.41.87 7.37 3.09a15.48 15.48 0 0 1 2.08-1.18A18.5 18.5 0 0 1 17.24.47a12 12 0 0 1 7.92 3 2.91 2.91 0 0 1 .6 1.13 6.7 6.7 0 0 1 3 2.41A2.44 2.44 0 0 1 29 8.46a3.88 3.88 0 0 1 1.28 1.15 2.69 2.69 0 0 1 .45 1.13 2 2 0 0 1-.39 1.69 2.31 2.31 0 0 1 1 1.33A3.6 3.6 0 0 1 29.8 17a16.39 16.39 0 0 1-5.8 2.72c-4.11 1-7.74 1.47-10.63 2a23.1 23.1 0 0 0 5.93.73 27.61 27.61 0 0 0 11.55-2.9s-.12.38-.24.71a27.61 27.61 0 0 1-12.74 3.23 28.17 28.17 0 0 1-7.16-1.2 12.76 12.76 0 0 0-2 .68 23.27 23.27 0 0 0 8.79 2.08 32.61 32.61 0 0 0 11.9-2c-.19.18-.28.48-.48.66A27.41 27.41 0 0 1 20.2 26a33.72 33.72 0 0 1-7.28-.44 24.69 24.69 0 0 1-5.41-1.76 1.29 1.29 0 0 0-.53.86c6.75 3.54 13.08 3.61 20.28 1.34l-.66.63c-7.92 3.21-14.12 2-18.91-.35a3.68 3.68 0 0 1-.49-.24c.44.77 4.11 3.45 8.2 3.78a20.71 20.71 0 0 0 8.31-1.07l-1.19.62a14.53 14.53 0 0 1-7.29 1.34 14 14 0 0 1-8.87-3.62 3.46 3.46 0 0 1-1-1.89A5.73 5.73 0 0 1 3 23.18a2.15 2.15 0 0 1-.18-1.61 2 2 0 0 1 .13-.44 4.64 4.64 0 0 1-1.3-1.21 2.09 2.09 0 0 1 .15-2.2 3.35 3.35 0 0 1-.68-1 3 3 0 0 1-.12-1.2 3.82 3.82 0 0 1 1-2c1-1.22 2.7-2.18 5.58-3.13a51.62 51.62 0 0 1 6.07-1.56c2.48-.58 5.44-.76 7.93-1.63a26.76 26.76 0 0 0-20 3.92L2 10m23.57-4.27a2.82 2.82 0 0 1-.7 1 21.9 21.9 0 0 1 2.24.75 3.17 3.17 0 0 0-1.54-1.75zM4.27 19.55a12.45 12.45 0 0 1-1.12-.68A1 1 0 0 0 3.72 20c.17-.15.37-.29.55-.45zm23.31-9a9.83 9.83 0 0 1 1.38.73c.31-.6.12-1-.53-1.54a5.46 5.46 0 0 1-.85.77zm-1.48.91a26.86 26.86 0 0 1-4.53 1.47c-1.7.43-5.85 1-10.3 2-1.42.3-5.23 1.21-7.11 2.8a8.16 8.16 0 0 0 1.43.85A11.87 11.87 0 0 1 9 17.15a64.37 64.37 0 0 1 7.23-1.44 65.33 65.33 0 0 0 9.57-2.25 8.12 8.12 0 0 0 2.2-1.13 7.58 7.58 0 0 0-1.9-.91zM6.86 22.06a9.48 9.48 0 0 1 1.35-.65c-.71-.3-1.44-.62-2.18-1a5.36 5.36 0 0 0-.87.66c.55.36 1.12.68 1.7.99zm-2.35.23a1.8 1.8 0 0 0 .88 1.36 2 2 0 0 1 .36-.65c-.42-.23-.84-.47-1.24-.71zM8 13.84c5-1.47 10.26-1.92 15.58-3.33a12.13 12.13 0 0 0-5.45-.51 60.65 60.65 0 0 0-9.71 2c-1.18.28-7.42 2-5.59 4.49 0 .03 1.06-1.49 5.17-2.65zm18.73-5.12a19.88 19.88 0 0 0-2.92-1 6.82 6.82 0 0 1-1.85 1 31.38 31.38 0 0 1 3.5.94 3.06 3.06 0 0 0 1.27-.94zm2.47 4.82l-.51.4a15.81 15.81 0 0 1-5.41 2.23c-5.15 1.39-8.89 1.59-13.15 2.63a17.87 17.87 0 0 0-2.5.81c.8.4 1.66.77 2.53 1.11a37.09 37.09 0 0 1 5.06-1.14c1-.16 3.89-.68 6-1.12 3.86-.83 9.47-2.6 7.98-4.92z" transform="translate(-.95 -.47)"/></svg>