<svg id="Layer_1" xmlns="http://www.w3.org/2000/svg" viewBox="0 0 33 37"><style>.st0{fill:#064277}.st1{fill:#fff}</style><path class="st0" d="M30 28v-5h-2v5h-7v7H2V2h26v7h2V0H0v37h21l9-9z"/><path class="st0" d="M11 10h22v11H11z"/><path class="st1" d="M17.8 14.6c0 .6-.2 1.1-.6 1.4-.4.3-1 .5-1.8.5h-.7V19H14v-6.2h1.6c1.4 0 2.2.6 2.2 1.8zm-3.2 1.3h.6c.6 0 1.1-.1 1.4-.3.3-.2.4-.5.4-1 0-.4-.1-.7-.4-.9-.3-.2-.7-.3-1.2-.3h-.8v2.5zm9.4-.1c0 1-.3 1.8-.8 2.3-.6.5-1.3.8-2.4.8h-1.7v-6.2H21c1 0 1.7.3 2.2.8.5.6.8 1.4.8 2.3zm-.7.1c0-.8-.2-1.4-.6-1.8-.4-.4-1-.6-1.8-.6h-1v4.9h.9c.9 0 1.5-.2 1.9-.6s.6-1.1.6-1.9zm2.8 3.1h-.7v-6.2h3.4v.6h-2.7v2.3h2.6v.6h-2.6V19z"/></svg>